<svg viewBox="0 0 100 100" xmlns="http://www.w3.org/2000/svg">
  <!-- Top half (red) -->
  <path d="M 50 5 A 45 45 0 0 1 95 50 L 65 50 A 15 15 0 0 0 35 50 L 5 50 A 45 45 0 0 1 50 5 Z" fill="#EE1515" stroke="#000" stroke-width="3"/>
  
  <!-- Bottom half (white) -->
  <path d="M 50 95 A 45 45 0 0 1 5 50 L 35 50 A 15 15 0 0 0 65 50 L 95 50 A 45 45 0 0 1 50 95 Z" fill="#FFFFFF" stroke="#000" stroke-width="3"/>
  
  <!-- Middle black band -->
  <rect x="5" y="45" width="90" height="10" fill="#000"/>
  
  <!-- Center button -->
  <circle cx="50" cy="50" r="12" fill="#FFFFFF" stroke="#000" stroke-width="3"/>
  <circle cx="50" cy="50" r="8" fill="#FFFFFF" stroke="#000" stroke-width="2"/>
</svg>